# xmcd
#
# Track frame offsets:
#	150
#	22151
#	43606
#	65149
#	86696
#	104900
#	127677
#	154241
#	170831
#	189754
#	213466
#	234642
#	254251
#
# Disc length: 3645 seconds
#
# Revision: 0
# Processed by: cddbd v1.4PL0 Copyright (c) Steve Scherf et al.
# Submitted via: dBpowerAMP V4.0
#
DISCID=bb0e3b0d
DTITLE=Lucinda Williams - World Without Tears
DYEAR=2003
DGENRE=Country
TTITLE0=Fruits of My Labor
TTITLE1=Righteously
TTITLE2=Ventura
TTITLE3=Bleeding Fingers
TTITLE4=Over Time
TTITLE5=Those Three Days
TTITLE6=Atonement
TTITLE7=Sweet Side
TTITLE8=Minneapolis
TTITLE9=People Talkin'
TTITLE10=American Dream
TTITLE11=World Without Tears
TTITLE12=Words Fell
EXTD=
EXTT0=
EXTT1=
EXTT2=
EXTT3=
EXTT4=
EXTT5=
EXTT6=
EXTT7=
EXTT8=
EXTT9=
EXTT10=
EXTT11=
EXTT12=
PLAYORDER=
